<?xml version="1.0" encoding="utf-8"?>
<!-- Generator: Adobe Illustrator 16.0.0, SVG Export Plug-In . SVG Version: 6.00 Build 0)  -->
<!DOCTYPE svg PUBLIC "-//W3C//DTD SVG 1.1//EN" "http://www.w3.org/Graphics/SVG/1.1/DTD/svg11.dtd">
<svg version="1.1" id="Layer_1" xmlns="http://www.w3.org/2000/svg" xmlns:xlink="http://www.w3.org/1999/xlink" x="0px" y="0px"
	 width="301.463px" height="687.5px" viewBox="0 0 301.463 687.5" enable-background="new 0 0 301.463 687.5" xml:space="preserve">
<g opacity="0.08">
	<path d="M420.947,307.583c-11.072,0-20.096,8.991-20.096,20.15c0,11.147,9.022,20.133,20.096,20.133
		c11.104,0,20.089-8.985,20.089-20.133C441.036,316.574,432.051,307.583,420.947,307.583z"/>
	<path d="M416.221,472.665c0,11.143,9.056,20.146,20.186,20.146c11.069,0,20.057-9.004,20.057-20.146
		c0-11.132-8.984-20.139-20.057-20.139C425.271,452.527,416.221,461.533,416.221,472.665z"/>
	<path d="M269.12,285.729c-11.143,0-20.161,9.024-20.161,20.183c0,11.127,9.021,20.132,20.161,20.132
		c11.161,0,20.172-9.009,20.172-20.132C289.292,294.753,280.283,285.729,269.12,285.729z"/>
	<path d="M360.033,184.425c-86.618,0-166.489,65.016-183.097,136.671c-3.754,15.928-7.869,57.524-7.869,57.524l-39.883,100.428
		c-0.767,1.806-1.15,3.841-1.15,5.978c0,8.465,6.938,15.384,15.436,15.384h25.599v53.354c0,41.604,33.699,75.3,75.254,75.3h29.91
		V687.5H477.91V525.479c44.421-34.942,72.945-89.222,72.945-150.125C550.854,269.894,465.398,184.425,360.033,184.425z
		 M215.942,416.679c-11.674,0-21.224-9.545-21.224-21.35c0-11.735,9.541-21.269,21.224-21.269c11.791,0,21.382,9.532,21.382,21.269
		C237.326,407.145,227.733,416.679,215.942,416.679z M497.647,387.836l-19.857,19.859l-24.211-17.098
		c-4.661,2.438-9.561,4.372-14.675,5.67l-4.464,26.342h9.243l2.468,14.08c0.973,0.265,1.95,0.4,2.906,0.751
		c2.487,0.921,4.777,2.104,6.921,3.464l11.159-7.848l9.157,9.149l-8.224,11.668c1.777,3.124,3.164,6.457,3.946,9.987l13.477,2.312
		v12.955l-14.03,2.413c-0.282,0.987-0.411,1.983-0.765,2.957c-0.915,2.505-2.116,4.814-3.506,6.991l7.888,11.108l-9.173,9.155
		l-11.602-8.231c-3.145,1.773-6.465,3.16-10.012,3.938l-2.367,13.493h-12.952l-2.326-14.082c-1.008-0.281-2.016-0.414-3.013-0.784
		c-2.48-0.92-4.791-2.105-6.95-3.471l-11.183,7.927l-9.107-9.18l8.242-11.647c-1.778-3.144-3.165-6.464-3.949-10.013l-13.54-2.347
		v-12.897l14.147-2.412c0.281-0.991,0.422-1.989,0.786-2.977c0.905-2.469,2.083-4.766,3.44-6.923l-7.892-11.179l9.144-9.146
		l11.667,8.24c3.127-1.758,6.44-3.143,9.968-3.943l2.02-11.699h-24.386l-5.099-29.217c-1.103-0.344-2.191-0.63-3.282-1.042
		c-3.93-1.444-7.586-3.252-11.071-5.286l-23.369,16.466l-19.814-19.873l17.054-24.134c-2.451-4.678-4.384-9.596-5.706-14.723
		l-28.093-4.839v-23.068l-14.148,2.44c-0.227,0.68-0.285,1.375-0.542,2.034c-0.922,2.503-2.122,4.8-3.424,7.02l10.849,15.371
		l-13.065,13.021l-15.917-11.227c-2.957,1.521-6.014,2.782-9.236,3.626l-3.218,18.434l-18.336,0.01l-3.339-19.225
		c-0.645-0.227-1.323-0.277-1.971-0.523c-2.516-0.938-4.844-2.155-7.082-3.474l-15.424,10.861l-13.006-13.039l11.284-15.977
		c-1.493-2.922-2.659-5.997-3.509-9.165l-18.551-3.178v-18.448l19.119-3.286c0.211-0.676,0.365-1.34,0.609-1.998
		c0.926-2.521,2.143-4.831,3.444-7.059l-10.863-15.371l12.991-13.023l15.986,11.248c2.957-1.532,6.029-2.799,9.271-3.656
		l3.215-18.445h18.338l3.352,19.24c0.664,0.212,1.342,0.261,1.979,0.505c2.527,0.939,4.836,2.163,7.084,3.459l15.364-10.831
		l13.061,13.025l-11.301,15.956c1.532,2.939,2.779,5.998,3.615,9.217l18.423,3.164v13.407l24.139-4.14
		c0.347-1.098,0.622-2.188,1.041-3.286c1.438-3.95,3.269-7.652,5.339-11.163l-16.578-23.278l19.938-19.895l24.181,17.093
		c4.684-2.438,9.602-4.369,14.733-5.689l4.742-28.114h28.112l5.097,29.191c1.093,0.325,2.195,0.626,3.285,1.025
		c3.91,1.441,7.579,3.27,11.056,5.305l23.373-16.463l19.79,19.856l-17.059,24.217c2.417,4.64,4.343,9.543,5.665,14.639l28.153,4.85
		v28.115l-29.213,5.03c-0.341,1.09-0.627,2.189-1.021,3.268c-1.461,3.932-3.288,7.602-5.341,11.094L497.647,387.836z"/>
</g>
</svg>
